<?xml version="1.0" encoding="UTF-8" standalone="no"?>
<svg
   viewBox="0 0 576 512"
   version="1.1"
   id="svg827"
   sodipodi:docname="open.svg"
   inkscape:export-filename="/home/michalis/open.png"
   inkscape:export-xdpi="4.7142859"
   inkscape:export-ydpi="4.7142859"
   inkscape:version="1.1.2 (0a00cf5339, 2022-02-04)"
   xmlns:inkscape="http://www.inkscape.org/namespaces/inkscape"
   xmlns:sodipodi="http://sodipodi.sourceforge.net/DTD/sodipodi-0.dtd"
   xmlns="http://www.w3.org/2000/svg"
   xmlns:svg="http://www.w3.org/2000/svg">
  <defs
     id="defs831" />
  <sodipodi:namedview
     id="namedview829"
     pagecolor="#ffffff"
     bordercolor="#666666"
     borderopacity="1.0"
     inkscape:pageshadow="2"
     inkscape:pageopacity="0.0"
     inkscape:pagecheckerboard="0"
     showgrid="false"
     inkscape:zoom="0.99298784"
     inkscape:cx="204.93705"
     inkscape:cy="256.80073"
     inkscape:window-width="1850"
     inkscape:window-height="1010"
     inkscape:window-x="70"
     inkscape:window-y="33"
     inkscape:window-maximized="1"
     inkscape:current-layer="svg827" />
  <!--! Font Awesome Free 6.2.1 by @fontawesome - https://fontawesome.com License - https://fontawesome.com/license/free (Icons: CC BY 4.0, Fonts: SIL OFL 1.1, Code: MIT License) Copyright 2022 Fonticons, Inc. -->
  <path
     d="M572.6 270.3l-96 192C471.2 473.2 460.1 480 447.1 480H64c-35.35 0-64-28.66-64-64V96c0-35.34 28.65-64 64-64h117.5c16.97 0 33.25 6.742 45.26 18.75L275.9 96H416c35.35 0 64 28.66 64 64v32h-48V160c0-8.824-7.178-16-16-16H256L192.8 84.69C189.8 81.66 185.8 80 181.5 80H64C55.18 80 48 87.18 48 96v288l71.16-142.3C124.6 230.8 135.7 224 147.8 224h396.2C567.7 224 583.2 249 572.6 270.3z"
     id="path825"
     inkscape:export-filename="/home/michalis/open.png"
     inkscape:export-xdpi="4.7142859"
     inkscape:export-ydpi="4.7142859" />
</svg>
