<?xml version="1.0" encoding="UTF-8" standalone="no"?>
<!-- Created with Inkscape (http://www.inkscape.org/) -->
<svg xmlns:dc="http://purl.org/dc/elements/1.1/" xmlns:cc="http://web.resource.org/cc/" xmlns:rdf="http://www.w3.org/1999/02/22-rdf-syntax-ns#" xmlns:svg="http://www.w3.org/2000/svg" xmlns="http://www.w3.org/2000/svg" xmlns:sodipodi="http://sodipodi.sourceforge.net/DTD/sodipodi-0.dtd" xmlns:inkscape="http://www.inkscape.org/namespaces/inkscape" id="svg3321" sodipodi:version="0.32" inkscape:version="0.44.1" width="300" height="286" version="1.0" sodipodi:docbase="E:\SVG" sodipodi:docname="Falco-peregrinus-silhouette.svg">
  <metadata id="metadata3326">
    <rdf:RDF>
      <cc:Work rdf:about="">
        <dc:format>image/svg+xml</dc:format>
        <dc:type rdf:resource="http://purl.org/dc/dcmitype/StillImage"/>
      </cc:Work>
    </rdf:RDF>
  </metadata>
  <defs id="defs3324"/>
  <sodipodi:namedview inkscape:window-height="573" inkscape:window-width="909" inkscape:pageshadow="2" inkscape:pageopacity="0.0" guidetolerance="10.0" gridtolerance="10.0" objecttolerance="10.0" borderopacity="1.0" bordercolor="#666666" pagecolor="#ffffff" id="base" inkscape:zoom="1.3321678" inkscape:cx="150" inkscape:cy="143" inkscape:window-x="88" inkscape:window-y="88" inkscape:current-layer="svg3321"/>
  <path style="fill: black;" d="M 72.666667,271.33333 C 72.3,270.96667 72,268.05833 72,264.87035 C 72,261.28224 71.189634,257.05986 69.872869,253.78702 C 67.868117,248.80417 67.404698,247.06754 66.460676,241 C 66.246746,239.625 65.568861,236.7 64.954264,234.5 C 64.339668,232.3 62.988657,223.75 61.952018,215.5 C 60.915378,207.25 59.360393,195.775 58.496495,190 C 56.551636,176.99898 56.462032,173.21725 57.785674,160 C 59.734759,140.5374 62.163927,134.83422 69.319647,132.92064 C 71.618841,132.3058 74.694431,131.17212 76.154292,130.40137 C 77.614153,129.63062 79.938839,129 81.320263,129 C 83.050107,129 84.804684,127.77181 86.956922,125.05439 C 88.675662,122.8843 90.879425,120.85566 91.854175,120.54628 C 93.360401,120.06823 93.567319,119.04678 93.232562,113.74189 C 92.970282,109.58554 92.194425,106.6647 90.91047,105 C 89.849956,103.625 88.547391,101.4875 88.015882,100.25 C 87.484373,99.0125 86.363364,98 85.524751,98 C 83.425445,98 83.52092,93.121071 85.636109,92.309397 C 86.535969,91.964088 89.550741,90.14823 92.335603,88.274156 C 97.227382,84.982232 97.637943,84.887214 104.44949,85.470587 C 113.67106,86.260365 115.45024,85.227014 119.89461,76.5 C 123.03833,70.32695 123.52342,68.357831 124.00079,59.831724 C 124.42147,52.318129 124.95867,49.703151 126.41126,48.098052 C 129.04082,45.192427 138.52588,40.002528 141.23485,39.987099 C 142.48068,39.980003 146.425,39.051743 150,37.924298 C 156.07226,36.009294 158.14515,35.912975 181.5,36.460619 C 195.25,36.78304 216.27521,37.087889 228.2227,37.138061 C 245.428,37.210312 250.1845,37.517378 251.09514,38.614641 C 251.7275,39.376589 253.65229,40.015946 255.37244,40.035435 C 257.0926,40.054925 259.625,40.713979 261,41.5 C 263.31573,42.823792 262.8698,42.931741 254.95,42.964565 C 250.2475,42.984054 245.93526,43.464743 245.36724,44.032763 C 244.79922,44.600782 241.43278,45.165593 237.88626,45.287897 C 232.94409,45.458332 230.7715,46.034579 228.58417,47.755134 C 226.64498,49.280502 224.37036,50 221.48727,50 C 217.22526,50 210.63874,52.157484 209.55691,53.907912 C 209.238,54.42393 207.51973,55.160665 205.73853,55.545101 C 198.92044,57.016653 193.99454,60.298093 183.81814,70.147608 C 177.3016,76.454833 172.68477,85.09716 172.41146,91.5 C 172.31755,93.7 170.85103,100 169.15252,105.5 C 166.87546,112.87344 166.22407,116.55062 166.67249,119.5 C 167.47413,124.77253 171.69128,132 173.96612,132 C 174.94296,132 176.75663,133.4625 177.9965,135.25 C 179.23636,137.0375 182.44124,140.3 185.11845,142.5 C 187.79566,144.7 190.24836,147.29949 190.56889,148.27664 C 190.88943,149.25379 192.35506,150.81501 193.82584,151.74601 C 198.4479,154.67175 207.89127,164.71861 208.57326,167.43587 C 209.42766,170.84007 207.63394,175.00254 203.68306,178.78397 C 199.0882,183.18178 193.8764,183.44976 189.21551,179.52788 C 187.59964,178.16822 186.05107,177.28226 185.77424,177.55909 C 185.49741,177.83592 184.499,176.88433 183.55556,175.44444 C 182.61211,174.00456 181.57901,173.08765 181.25979,173.40687 C 180.94057,173.7261 180.05101,173.09014 179.28299,171.99364 C 178.51497,170.89714 177.12461,169.98267 176.1933,169.96148 C 175.26198,169.94029 173.6,168.49723 172.5,166.75466 C 169.46879,161.95278 163.22991,158.07247 158.4774,158.03322 C 154.9202,158.00384 154.23674,157.59507 152.56993,154.5 C 149.98668,149.70319 147.07465,149.85533 143,155 C 141.25757,157.2 139.20513,159 138.43902,159 C 137.67292,159 136.33438,160.08623 135.46449,161.41385 C 134.5946,162.74146 132.22173,164.59707 130.19144,165.53742 C 128.16115,166.47776 122.83044,169.66653 118.34543,172.62357 C 113.86041,175.58061 109.87537,178 109.48978,178 C 108.85997,178 105.05001,180.8254 101,184.29589 C 100.175,185.00283 96.924241,187.31718 93.776091,189.43887 C 89.204578,192.51984 87.710816,194.22297 86.356623,197.89825 C 85.424065,200.42921 84.062324,203.21043 83.330531,204.07874 C 82.598739,204.94705 82,206.35459 82,207.20662 C 82,208.05864 81.322333,210.37764 80.494074,212.35994 C 79.665814,214.34225 78.722999,220.58179 78.398928,226.22559 C 78.074858,231.86939 77.378595,237.29259 76.851677,238.27714 C 76.324759,239.2617 75.744484,245.56461 75.562178,252.28362 C 75.379871,259.00263 75.178801,266.1875 75.115355,268.25 C 75.006422,271.79124 74.173441,272.84011 72.666667,271.33333 z " id="path3330"/>
</svg>