<?xml version="1.0" encoding="UTF-8" standalone="no"?>
<svg
   xmlns:dc="http://purl.org/dc/elements/1.1/"
   xmlns:cc="http://creativecommons.org/ns#"
   xmlns:rdf="http://www.w3.org/1999/02/22-rdf-syntax-ns#"
   xmlns:svg="http://www.w3.org/2000/svg"
   xmlns="http://www.w3.org/2000/svg"
   xmlns:sodipodi="http://sodipodi.sourceforge.net/DTD/sodipodi-0.dtd"
   xmlns:inkscape="http://www.inkscape.org/namespaces/inkscape"
   id="0"
   sodipodi:docname="light_gizmo.svg"
   viewBox="0 0 149.32 185.28"
   version="1.0"
   inkscape:version="0.91 r13725"
   inkscape:export-filename="/home/michalis/sources/castle-engine/view3dscene/images/light_gizmo.png"
   inkscape:export-xdpi="71"
   inkscape:export-ydpi="71">
  <defs
     id="defs3600" />
  <sodipodi:namedview
     id="namedview19"
     bordercolor="#666666"
     inkscape:pageshadow="2"
     guidetolerance="10"
     pagecolor="#ffffff"
     gridtolerance="10"
     inkscape:window-maximized="1"
     inkscape:window-width="1024"
     inkscape:zoom="4.874982"
     objecttolerance="10"
     showgrid="false"
     borderopacity="1"
     inkscape:current-layer="0"
     inkscape:cx="81.321139"
     inkscape:cy="59.868561"
     inkscape:window-y="41"
     inkscape:window-x="0"
     inkscape:window-height="666"
     inkscape:pageopacity="0"
     inkscape:snap-global="true"
     inkscape:snap-bbox="true"
     inkscape:bbox-paths="true"
     inkscape:bbox-nodes="true"
     inkscape:snap-bbox-edge-midpoints="true"
     inkscape:snap-bbox-midpoints="true"
     inkscape:snap-object-midpoints="true" />
  <path
     d="m 58.2815,164.7778 -1.9,-0.42 -0.929,-0.63 -0.507,-1.48 -0.211,-1.44 0.085,-1.18 0.844,-2.62 -0.211,-1.98 -0.887,-3.04 -1.097,-2.28 -0.887,-2.03 -0.549,-2.32 -0.042,-1.9 0.591,-2.28 1.056,-1.99 1.097,-1.6 0.929,-2.2 0.422,-1.81 -0.042,-2.15 -0.507,-2.41 -0.844,-1.27 -1.858,-2.24 -0.168,-0.76 0.084,-1.39 0.253,-1.01 1.014,-1.65 42.131,0 0.04,1.18 0.98,1.86 0.71,2.58 0.05,1.85 -0.6,3.34 -2.107,5.87 -0.464,2.19 0,1.27 1.051,4.35 0.47,1.65 1.1,2.11 0.55,2.32 -0.05,1.69 -0.67,2.83 -1.565,4.09 -0.802,4.35 -0.591,0.43 -1.055,0.08 -34.914,0.04 z"
     inkscape:connector-curvature="0"
     style="fill:#c0c0c0;fill-rule:evenodd;stroke:#000000;stroke-width:1.2665px;stroke-linecap:round;stroke-linejoin:round;fill-opacity:0.50107068"
     id="2" />
  <path
     d="m 59.3785,164.7778 7.304,7.35 17.309,0 7.304,-7.35 -31.917,0 z"
     inkscape:connector-curvature="0"
     style="fill:#000000;fill-rule:evenodd;stroke:#000000;stroke-width:1.2665px;stroke-linecap:round;stroke-linejoin:round"
     id="3" />
  <path
     d="m 95.9785,120.6978 -41.961,0 -0.38,-3 -0.718,-3.38 -1.689,-4.77 -2.364,-4.56 -4.433,-7.6 -5.404,-10.343 -1.435,-3.547 -1.013,-4.18 -0.423,-3.336 -0.084,-3.842 0.422,-4.054 0.676,-3.589 1.182,-3.927 1.942,-4.349 2.448,-4.138 2.702,-3.673 3.335,-3.674 3.125,-2.575 3.377,-2.154 4.728,-2.238 4.518,-1.604 3.884,-0.929 3.673,-0.423 3.968,0 5.151,0.507 5.15,1.014 4.307,1.477 3.504,1.816 4.392,3.04 4.09,3.547 2.66,2.871 2.45,3.209 2.07,3.547 1.86,4.138 1.1,3.336 0.8,3.758 0.34,3.716 -0.09,4.264 -0.59,4.476 -1.1,4.603 -1.18,3.673 -5.74,9.463 -4.98,8.9 -1.78,4.06 -1.56,5.07 -0.84,4.56 -0.09,0.84 z"
     inkscape:connector-curvature="0"
     style="fill:#ffffff;fill-rule:evenodd;stroke:#000000;stroke-width:1.2665px;stroke-linecap:round;stroke-linejoin:round;fill-opacity:0.50107068"
     id="4" />
  <path
     d="m 130.2585,185.2178 0,-0.21"
     inkscape:connector-curvature="0"
     style="fill:none;stroke:#000000;stroke-width:0.042218px;stroke-linecap:round;stroke-linejoin:round"
     id="8" />
  <path
     d="m 0.0625,72.2668 22.755,0 0,3.462 -22.755,0 0,-3.462 z"
     inkscape:connector-curvature="0"
     style="fill:#000000;fill-rule:evenodd;stroke:#000000;stroke-width:0.042218px;stroke-linecap:round;stroke-linejoin:round;fill-opacity:1"
     id="10" />
  <path
     d="m 126.4585,72.0558 22.8,0 0,3.462 -22.8,0 0,-3.462 z"
     inkscape:connector-curvature="0"
     style="fill:#000000;fill-rule:evenodd;stroke:#000000;stroke-width:0.042218px;stroke-linecap:round;stroke-linejoin:round;fill-opacity:1"
     id="11" />
  <path
     d="m 76.2235,0.0625 -3.462,0 0,22.759 3.462,0 0,-22.759 z"
     inkscape:connector-curvature="0"
     style="fill:#000000;fill-rule:evenodd;stroke:#000000;stroke-width:0.042218px;stroke-linecap:round;stroke-linejoin:round;fill-opacity:1"
     id="12" />
  <path
     d="m 22.1005,20.2458 -2.491,2.449 16.127,16.172 2.449,-2.491 -16.085,-16.13 z"
     inkscape:connector-curvature="0"
     style="fill:#000000;fill-rule:evenodd;stroke:#000000;stroke-width:0.042218px;stroke-linecap:round;stroke-linejoin:round;fill-opacity:1"
     id="13" />
  <path
     d="m 126.9685,22.6948 -2.45,-2.449 -16.12,16.13 2.44,2.491 16.13,-16.172 z"
     inkscape:connector-curvature="0"
     style="fill:#000000;fill-rule:evenodd;stroke:#000000;stroke-width:0.042218px;stroke-linecap:round;stroke-linejoin:round;fill-opacity:1"
     id="14" />
  <path
     d="m 120.3885,100.6878 -2.45,2.49 16.08,16.13 2.49,-2.49 -16.12,-16.13 z"
     inkscape:connector-curvature="0"
     style="fill:#000000;fill-rule:evenodd;stroke:#000000;stroke-width:0.042218px;stroke-linecap:round;stroke-linejoin:round;fill-opacity:1"
     id="15" />
  <path
     d="m 33.2035,104.9078 -2.449,-2.45 -16.127,16.09 2.491,2.49 16.085,-16.13 z"
     inkscape:connector-curvature="0"
     style="fill:#000000;fill-rule:evenodd;stroke:#000000;stroke-width:0.042218px;stroke-linecap:round;stroke-linejoin:round;fill-opacity:1"
     id="16" />
  <metadata
     id="metadata20">
    <rdf:RDF>
      <cc:Work>
        <dc:format>image/svg+xml</dc:format>
        <dc:type
           rdf:resource="http://purl.org/dc/dcmitype/StillImage" />
        <cc:license
           rdf:resource="http://creativecommons.org/publicdomain/zero/1.0/" />
        <dc:publisher>
          <cc:Agent
             rdf:about="http://openclipart.org/">
            <dc:title>Openclipart</dc:title>
          </cc:Agent>
        </dc:publisher>
        <dc:title></dc:title>
      </cc:Work>
      <cc:License
         rdf:about="http://creativecommons.org/publicdomain/zero/1.0/">
        <cc:permits
           rdf:resource="http://creativecommons.org/ns#Reproduction" />
        <cc:permits
           rdf:resource="http://creativecommons.org/ns#Distribution" />
        <cc:permits
           rdf:resource="http://creativecommons.org/ns#DerivativeWorks" />
      </cc:License>
    </rdf:RDF>
  </metadata>
  <path
     d="m 50.92735,74.015297 47.130301,0 0,1.148452 -47.130301,0 0,-1.148452 z"
     inkscape:connector-curvature="0"
     style="fill:#000000;fill-opacity:1;fill-rule:evenodd;stroke:#000000;stroke-width:0.03499472px;stroke-linecap:round;stroke-linejoin:round"
     id="10-3" />
  <path
     d="m 75.066726,50.432648 0,47.130303 -1.148452,0 0,-47.130303 1.148452,0 z"
     inkscape:connector-curvature="0"
     style="fill:#000000;fill-opacity:1;fill-rule:evenodd;stroke:#000000;stroke-width:0.03499472px;stroke-linecap:round;stroke-linejoin:round"
     id="10-3-7" />
</svg>
