<?xml version="1.0" encoding="UTF-8" standalone="no"?>
<!-- Generator: Adobe Illustrator 11.0, SVG Export Plug-In  -->
<svg
   xmlns:dc="http://purl.org/dc/elements/1.1/"
   xmlns:cc="http://creativecommons.org/ns#"
   xmlns:rdf="http://www.w3.org/1999/02/22-rdf-syntax-ns#"
   xmlns:svg="http://www.w3.org/2000/svg"
   xmlns="http://www.w3.org/2000/svg"
   xmlns:sodipodi="http://sodipodi.sourceforge.net/DTD/sodipodi-0.dtd"
   xmlns:inkscape="http://www.inkscape.org/namespaces/inkscape"
   width="512"
   height="512"
   viewBox="-0.592 -0.408 512 512"
   xml:space="preserve"
   id="svg2499"
   sodipodi:version="0.32"
   inkscape:version="0.46"
   sodipodi:docname="walk.svg"
   inkscape:output_extension="org.inkscape.output.svg.inkscape"><metadata
   id="metadata2518"><rdf:RDF><cc:Work
       rdf:about=""><dc:format>image/svg+xml</dc:format><dc:type
         rdf:resource="http://purl.org/dc/dcmitype/StillImage" /></cc:Work></rdf:RDF></metadata><sodipodi:namedview
   inkscape:window-height="782"
   inkscape:window-width="1440"
   inkscape:pageshadow="2"
   inkscape:pageopacity="0.0"
   guidetolerance="10.0"
   gridtolerance="10.0"
   objecttolerance="10.0"
   borderopacity="1.0"
   bordercolor="#666666"
   pagecolor="#ffffff"
   id="base"
   showgrid="false"
   inkscape:zoom="0.5"
   inkscape:cx="177.73506"
   inkscape:cy="431.49606"
   inkscape:window-x="0"
   inkscape:window-y="49"
   inkscape:current-layer="g2503" />
	<defs
   id="defs2501"><inkscape:perspective
   sodipodi:type="inkscape:persp3d"
   inkscape:vp_x="0 : 256 : 1"
   inkscape:vp_y="0 : 1000 : 0"
   inkscape:vp_z="512 : 256 : 1"
   inkscape:persp3d-origin="256 : 170.66667 : 1"
   id="perspective2520" />
	</defs>
	<g
   id="g2503"><path
   id="path3349"
   d="M 282.11233,263.08633 L 304.5572,333.6915 L 369.72481,388.54695 L 354.06322,413.53522 L 323.05592,413.53522 L 327.08792,405.39922 L 342.18322,403.02322 L 343.91122,396.25522 L 272.79666,348.27743 L 257.58322,287.67922 L 203.04481,339.0904 L 178.42726,395.55515 L 171.13382,418.07875 L 118.62322,391.86322 L 127.04722,384.08722 L 154.94027,392.42741 L 178.93126,320.06524 L 232.55779,262.26852 C 235.51123,217.04252 233.78541,220.16899 234.39922,199.11922 L 227.63122,210.63922 L 190.224,233.784 L 185.184,237.528 C 183.816,238.536 182.16,238.896 180.144,238.896 C 175.392,238.896 171.288,235.152 171.288,230.112 C 171.288,227.376 172.656,225 177.7711,222.10594 L 214.38322,191.05522 L 220.50322,153.47122 C 220.86322,150.44722 221.87122,147.71122 223.52722,144.97522 C 225.54322,142.59922 227.91922,140.58322 230.29522,138.56722 C 236.02664,130.35128 253.24065,134.13713 253.58646,123.76199 C 253.30944,117.70696 236.92762,115.07811 235.49089,98.71534 C 234.75168,83.409958 241.49388,70.780908 256.14753,70.227602 C 268.55494,70.306757 279.35146,80.198453 279.69759,95.517896 C 279.92659,105.77044 275.072,115.38166 266.78632,119.65219 C 261.71681,125.24278 267.70836,126.81083 273.56722,129.06322 C 278.31922,131.43922 282.99922,133.81522 287.75122,135.83122 C 290.77522,137.19922 293.51122,138.92722 295.88722,140.94322 C 297.90322,142.59922 299.63122,144.97522 300.92722,147.35122 L 322.59922,186.59122 L 325.17079,233.52769 L 325.69522,237.71122 L 326.34322,248.51122 C 326.34322,248.51122 326.34322,248.87122 326.34322,249.23122 C 326.34322,253.98322 322.59922,258.01522 317.55922,258.01522 C 313.16722,258.01522 309.42322,254.99122 308.77522,250.59922 L 301.28722,201.49522 L 285.73522,178.52722 L 287.10322,219.13522 C 286.74322,219.42322 286.07436,228.80458 285.61822,236.89322 C 285.16174,244.98793 285.51936,260.98087 282.11233,263.08633 z"
   sodipodi:nodetypes="ccccccccccccccccccccccssccccccccccccccccccssccccsc"
   style="fill:#000000;stroke:none;stroke-opacity:1;fill-opacity:1" />
		
		
		
		
		
		
	</g>
</svg>